<svg width="24" height="24" viewBox="0 0 24 24" fill="none" xmlns="http://www.w3.org/2000/svg">
<path fill-rule="evenodd" clip-rule="evenodd" d="M12.2191 6.96901C12.2888 6.89917 12.3716 6.84375 12.4627 6.80594C12.5538 6.76813 12.6515 6.74867 12.7501 6.74867C12.8488 6.74867 12.9465 6.76813 13.0376 6.80594C13.1287 6.84375 13.2115 6.89917 13.2811 6.96901L17.7811 11.469C17.851 11.5387 17.9064 11.6214 17.9442 11.7126C17.982 11.8037 18.0015 11.9014 18.0015 12C18.0015 12.0987 17.982 12.1963 17.9442 12.2875C17.9064 12.3786 17.851 12.4613 17.7811 12.531L13.2811 17.031C13.1403 17.1718 12.9493 17.251 12.7501 17.251C12.551 17.251 12.3599 17.1718 12.2191 17.031C12.0783 16.8902 11.9992 16.6992 11.9992 16.5C11.9992 16.3008 12.0783 16.1098 12.2191 15.969L16.1896 12L12.2191 8.03101C12.1493 7.96134 12.0939 7.87858 12.0561 7.78746C12.0182 7.69635 11.9988 7.59866 11.9988 7.50001C11.9988 7.40136 12.0182 7.30368 12.0561 7.21256C12.0939 7.12144 12.1493 7.03868 12.2191 6.96901Z" fill="#272727"/>
<path fill-rule="evenodd" clip-rule="evenodd" d="M6 12C6 11.8011 6.07902 11.6103 6.21967 11.4697C6.36032 11.329 6.55109 11.25 6.75 11.25H16.5C16.6989 11.25 16.8897 11.329 17.0303 11.4697C17.171 11.6103 17.25 11.8011 17.25 12C17.25 12.1989 17.171 12.3897 17.0303 12.5303C16.8897 12.671 16.6989 12.75 16.5 12.75H6.75C6.55109 12.75 6.36032 12.671 6.21967 12.5303C6.07902 12.3897 6 12.1989 6 12Z" fill="#272727"/>
</svg>
