<svg width="30" height="30" viewBox="0 0 30 30" fill="none" xmlns="http://www.w3.org/2000/svg">
<path fill-rule="evenodd" clip-rule="evenodd" d="M20 21C20 21 21 21 21 20C21 19 20 16 15 16C10 16 9 19 9 20C9 21 10 21 10 21H20ZM10.005 20.056V20.054V20.056ZM10.022 20H19.978C19.9827 19.9995 19.9874 19.9988 19.992 19.998L20 19.996C19.999 19.75 19.846 19.01 19.168 18.332C18.516 17.68 17.289 17 15 17C12.71 17 11.484 17.68 10.832 18.332C10.154 19.01 10.002 19.75 10 19.996C10.0073 19.9974 10.0147 19.9987 10.022 20ZM19.996 20.056V20.054V20.056ZM15 14C15.5304 14 16.0391 13.7893 16.4142 13.4142C16.7893 13.0391 17 12.5304 17 12C17 11.4696 16.7893 10.9609 16.4142 10.5858C16.0391 10.2107 15.5304 10 15 10C14.4696 10 13.9609 10.2107 13.5858 10.5858C13.2107 10.9609 13 11.4696 13 12C13 12.5304 13.2107 13.0391 13.5858 13.4142C13.9609 13.7893 14.4696 14 15 14ZM18 12C18 12.7956 17.6839 13.5587 17.1213 14.1213C16.5587 14.6839 15.7956 15 15 15C14.2044 15 13.4413 14.6839 12.8787 14.1213C12.3161 13.5587 12 12.7956 12 12C12 11.2044 12.3161 10.4413 12.8787 9.87868C13.4413 9.31607 14.2044 9 15 9C15.7956 9 16.5587 9.31607 17.1213 9.87868C17.6839 10.4413 18 11.2044 18 12Z" fill="#6C757D"/>
<rect x="0.5" y="0.5" width="29" height="29" rx="14.5" stroke="#6C757D"/>
</svg>
