<svg width="12" height="12" viewBox="0 0 12 12" fill="none" xmlns="http://www.w3.org/2000/svg">
<path fill-rule="evenodd" clip-rule="evenodd" d="M12 6C12 7.5913 11.3679 9.11742 10.2426 10.2426C9.11742 11.3679 7.5913 12 6 12C4.4087 12 2.88258 11.3679 1.75736 10.2426C0.632141 9.11742 0 7.5913 0 6C0 4.4087 0.632141 2.88258 1.75736 1.75736C2.88258 0.632141 4.4087 0 6 0C7.5913 0 9.11742 0.632141 10.2426 1.75736C11.3679 2.88258 12 4.4087 12 6ZM8.8905 3.6405C8.96091 3.57009 9.00047 3.47458 9.00047 3.375C9.00047 3.27542 8.96091 3.17991 8.8905 3.1095C8.82009 3.03908 8.72458 2.99953 8.625 2.99953C8.52542 2.99953 8.42991 3.03908 8.3595 3.1095L6 5.46975L3.6405 3.1095C3.60563 3.07463 3.56424 3.04698 3.51869 3.02811C3.47313 3.00924 3.42431 2.99953 3.375 2.99953C3.32569 2.99953 3.27687 3.00924 3.23131 3.02811C3.18576 3.04698 3.14437 3.07463 3.1095 3.1095C3.07463 3.14437 3.04698 3.18576 3.02811 3.23131C3.00924 3.27687 2.99953 3.32569 2.99953 3.375C2.99953 3.42431 3.00924 3.47313 3.02811 3.51869C3.04698 3.56424 3.07463 3.60563 3.1095 3.6405L5.46975 6L3.1095 8.3595C3.03908 8.42991 2.99953 8.52542 2.99953 8.625C2.99953 8.72458 3.03908 8.82009 3.1095 8.8905C3.17991 8.96091 3.27542 9.00047 3.375 9.00047C3.47458 9.00047 3.57009 8.96091 3.6405 8.8905L6 6.53025L8.3595 8.8905C8.39437 8.92537 8.43576 8.95302 8.48131 8.97189C8.52687 8.99076 8.57569 9.00047 8.625 9.00047C8.67431 9.00047 8.72313 8.99076 8.76869 8.97189C8.81424 8.95302 8.85563 8.92537 8.8905 8.8905C8.92537 8.85563 8.95302 8.81424 8.97189 8.76869C8.99076 8.72313 9.00047 8.67431 9.00047 8.625C9.00047 8.57569 8.99076 8.52687 8.97189 8.48131C8.95302 8.43576 8.92537 8.39437 8.8905 8.3595L6.53025 6L8.8905 3.6405Z" fill="#272727"/>
</svg>
