<svg width="30" height="30" viewBox="0 0 30 30" fill="none" xmlns="http://www.w3.org/2000/svg">
<g clip-path="url(#clip0_831_6107)">
<path fill-rule="evenodd" clip-rule="evenodd" d="M21 7H9C8.46957 7 7.96086 7.21071 7.58579 7.58579C7.21071 7.96086 7 8.46957 7 9V21C7 21.5304 7.21071 22.0391 7.58579 22.4142C7.96086 22.7893 8.46957 23 9 23H21C21.5304 23 22.0391 22.7893 22.4142 22.4142C22.7893 22.0391 23 21.5304 23 21V9C23 8.46957 22.7893 7.96086 22.4142 7.58579C22.0391 7.21071 21.5304 7 21 7V7ZM8 10.857C8 10.384 8.448 10 9 10H21C21.552 10 22 10.384 22 10.857V21.143C22 21.616 21.552 22 21 22H9C8.448 22 8 21.616 8 21.143V10.857Z" fill="#6C757D"/>
<path fill-rule="evenodd" clip-rule="evenodd" d="M13.5 14C13.7652 14 14.0196 13.8946 14.2071 13.7071C14.3946 13.5196 14.5 13.2652 14.5 13C14.5 12.7348 14.3946 12.4804 14.2071 12.2929C14.0196 12.1054 13.7652 12 13.5 12C13.2348 12 12.9804 12.1054 12.7929 12.2929C12.6054 12.4804 12.5 12.7348 12.5 13C12.5 13.2652 12.6054 13.5196 12.7929 13.7071C12.9804 13.8946 13.2348 14 13.5 14ZM16.5 14C16.7652 14 17.0196 13.8946 17.2071 13.7071C17.3946 13.5196 17.5 13.2652 17.5 13C17.5 12.7348 17.3946 12.4804 17.2071 12.2929C17.0196 12.1054 16.7652 12 16.5 12C16.2348 12 15.9804 12.1054 15.7929 12.2929C15.6054 12.4804 15.5 12.7348 15.5 13C15.5 13.2652 15.6054 13.5196 15.7929 13.7071C15.9804 13.8946 16.2348 14 16.5 14ZM19.5 14C19.7652 14 20.0196 13.8946 20.2071 13.7071C20.3946 13.5196 20.5 13.2652 20.5 13C20.5 12.7348 20.3946 12.4804 20.2071 12.2929C20.0196 12.1054 19.7652 12 19.5 12C19.2348 12 18.9804 12.1054 18.7929 12.2929C18.6054 12.4804 18.5 12.7348 18.5 13C18.5 13.2652 18.6054 13.5196 18.7929 13.7071C18.9804 13.8946 19.2348 14 19.5 14ZM10.5 17C10.7652 17 11.0196 16.8946 11.2071 16.7071C11.3946 16.5196 11.5 16.2652 11.5 16C11.5 15.7348 11.3946 15.4804 11.2071 15.2929C11.0196 15.1054 10.7652 15 10.5 15C10.2348 15 9.98043 15.1054 9.79289 15.2929C9.60536 15.4804 9.5 15.7348 9.5 16C9.5 16.2652 9.60536 16.5196 9.79289 16.7071C9.98043 16.8946 10.2348 17 10.5 17ZM13.5 17C13.7652 17 14.0196 16.8946 14.2071 16.7071C14.3946 16.5196 14.5 16.2652 14.5 16C14.5 15.7348 14.3946 15.4804 14.2071 15.2929C14.0196 15.1054 13.7652 15 13.5 15C13.2348 15 12.9804 15.1054 12.7929 15.2929C12.6054 15.4804 12.5 15.7348 12.5 16C12.5 16.2652 12.6054 16.5196 12.7929 16.7071C12.9804 16.8946 13.2348 17 13.5 17ZM16.5 17C16.7652 17 17.0196 16.8946 17.2071 16.7071C17.3946 16.5196 17.5 16.2652 17.5 16C17.5 15.7348 17.3946 15.4804 17.2071 15.2929C17.0196 15.1054 16.7652 15 16.5 15C16.2348 15 15.9804 15.1054 15.7929 15.2929C15.6054 15.4804 15.5 15.7348 15.5 16C15.5 16.2652 15.6054 16.5196 15.7929 16.7071C15.9804 16.8946 16.2348 17 16.5 17ZM19.5 17C19.7652 17 20.0196 16.8946 20.2071 16.7071C20.3946 16.5196 20.5 16.2652 20.5 16C20.5 15.7348 20.3946 15.4804 20.2071 15.2929C20.0196 15.1054 19.7652 15 19.5 15C19.2348 15 18.9804 15.1054 18.7929 15.2929C18.6054 15.4804 18.5 15.7348 18.5 16C18.5 16.2652 18.6054 16.5196 18.7929 16.7071C18.9804 16.8946 19.2348 17 19.5 17ZM10.5 20C10.7652 20 11.0196 19.8946 11.2071 19.7071C11.3946 19.5196 11.5 19.2652 11.5 19C11.5 18.7348 11.3946 18.4804 11.2071 18.2929C11.0196 18.1054 10.7652 18 10.5 18C10.2348 18 9.98043 18.1054 9.79289 18.2929C9.60536 18.4804 9.5 18.7348 9.5 19C9.5 19.2652 9.60536 19.5196 9.79289 19.7071C9.98043 19.8946 10.2348 20 10.5 20ZM13.5 20C13.7652 20 14.0196 19.8946 14.2071 19.7071C14.3946 19.5196 14.5 19.2652 14.5 19C14.5 18.7348 14.3946 18.4804 14.2071 18.2929C14.0196 18.1054 13.7652 18 13.5 18C13.2348 18 12.9804 18.1054 12.7929 18.2929C12.6054 18.4804 12.5 18.7348 12.5 19C12.5 19.2652 12.6054 19.5196 12.7929 19.7071C12.9804 19.8946 13.2348 20 13.5 20ZM16.5 20C16.7652 20 17.0196 19.8946 17.2071 19.7071C17.3946 19.5196 17.5 19.2652 17.5 19C17.5 18.7348 17.3946 18.4804 17.2071 18.2929C17.0196 18.1054 16.7652 18 16.5 18C16.2348 18 15.9804 18.1054 15.7929 18.2929C15.6054 18.4804 15.5 18.7348 15.5 19C15.5 19.2652 15.6054 19.5196 15.7929 19.7071C15.9804 19.8946 16.2348 20 16.5 20Z" fill="#6C757D"/>
</g>
<rect x="0.5" y="0.5" width="29" height="29" rx="14.5" stroke="#6C757D"/>
<defs>
<clipPath id="clip0_831_6107">
<rect width="16" height="16" fill="white" transform="translate(7 7)"/>
</clipPath>
</defs>
</svg>
