<svg width="7" height="16" viewBox="0 0 7 16" fill="none" xmlns="http://www.w3.org/2000/svg">
<path fill-rule="evenodd" clip-rule="evenodd" d="M0 3C0 2.33696 0.263392 1.70107 0.732233 1.23223C1.20107 0.763392 1.83696 0.5 2.5 0.5C3.16304 0.5 3.79893 0.763392 4.26777 1.23223C4.73661 1.70107 5 2.33696 5 3V12C5 12.3978 4.84196 12.7794 4.56066 13.0607C4.27936 13.342 3.89782 13.5 3.5 13.5C3.10218 13.5 2.72064 13.342 2.43934 13.0607C2.15804 12.7794 2 12.3978 2 12V5C2 4.86739 2.05268 4.74021 2.14645 4.64645C2.24021 4.55268 2.36739 4.5 2.5 4.5C2.63261 4.5 2.75979 4.55268 2.85355 4.64645C2.94732 4.74021 3 4.86739 3 5V12C3 12.1326 3.05268 12.2598 3.14645 12.3536C3.24021 12.4473 3.36739 12.5 3.5 12.5C3.63261 12.5 3.75979 12.4473 3.85355 12.3536C3.94732 12.2598 4 12.1326 4 12V3C4 2.80302 3.9612 2.60796 3.88582 2.42597C3.81044 2.24399 3.69995 2.07863 3.56066 1.93934C3.42137 1.80005 3.25601 1.68956 3.07403 1.61418C2.89204 1.5388 2.69698 1.5 2.5 1.5C2.30302 1.5 2.10796 1.5388 1.92597 1.61418C1.74399 1.68956 1.57863 1.80005 1.43934 1.93934C1.30005 2.07863 1.18956 2.24399 1.11418 2.42597C1.0388 2.60796 1 2.80302 1 3V12C1 12.663 1.26339 13.2989 1.73223 13.7678C2.20107 14.2366 2.83696 14.5 3.5 14.5C4.16304 14.5 4.79893 14.2366 5.26777 13.7678C5.73661 13.2989 6 12.663 6 12V5C6 4.86739 6.05268 4.74021 6.14645 4.64645C6.24021 4.55268 6.36739 4.5 6.5 4.5C6.63261 4.5 6.75979 4.55268 6.85355 4.64645C6.94732 4.74021 7 4.86739 7 5V12C7 12.9283 6.63125 13.8185 5.97487 14.4749C5.3185 15.1313 4.42826 15.5 3.5 15.5C2.57174 15.5 1.6815 15.1313 1.02513 14.4749C0.368749 13.8185 0 12.9283 0 12V3Z" fill="#272727"/>
</svg>
