<svg width="17" height="16" viewBox="0 0 17 16" fill="none" xmlns="http://www.w3.org/2000/svg">
<g clip-path="url(#clip0_768_10743)">
<path fill-rule="evenodd" clip-rule="evenodd" d="M8.5 15C10.3565 15 12.137 14.2625 13.4497 12.9497C14.7625 11.637 15.5 9.85652 15.5 8C15.5 6.14348 14.7625 4.36301 13.4497 3.05025C12.137 1.7375 10.3565 1 8.5 1C6.64348 1 4.86301 1.7375 3.55025 3.05025C2.2375 4.36301 1.5 6.14348 1.5 8C1.5 9.85652 2.2375 11.637 3.55025 12.9497C4.86301 14.2625 6.64348 15 8.5 15ZM16.5 8C16.5 10.1217 15.6571 12.1566 14.1569 13.6569C12.6566 15.1571 10.6217 16 8.5 16C6.37827 16 4.34344 15.1571 2.84315 13.6569C1.34285 12.1566 0.5 10.1217 0.5 8C0.5 5.87827 1.34285 3.84344 2.84315 2.34315C4.34344 0.842855 6.37827 0 8.5 0C10.6217 0 12.6566 0.842855 14.1569 2.34315C15.6571 3.84344 16.5 5.87827 16.5 8Z" fill="#272727"/>
<path fill-rule="evenodd" clip-rule="evenodd" d="M8 3C8.13261 3 8.25979 3.05268 8.35355 3.14645C8.44732 3.24021 8.5 3.36739 8.5 3.5V8.71L11.748 10.566C11.8598 10.6334 11.9408 10.7419 11.9736 10.8683C12.0065 10.9946 11.9886 11.1288 11.9238 11.2422C11.8591 11.3556 11.7525 11.4391 11.627 11.4749C11.5014 11.5108 11.3669 11.4961 11.252 11.434L7.752 9.434C7.67547 9.39029 7.61186 9.32712 7.56761 9.25091C7.52335 9.17469 7.50003 9.08813 7.5 9V3.5C7.5 3.36739 7.55268 3.24021 7.64645 3.14645C7.74021 3.05268 7.86739 3 8 3Z" fill="#272727"/>
</g>
<defs>
<clipPath id="clip0_768_10743">
<rect width="16" height="16" fill="white" transform="translate(0.5)"/>
</clipPath>
</defs>
</svg>
