<svg width="16" height="16" viewBox="0 0 16 16" fill="none" xmlns="http://www.w3.org/2000/svg">
<path fill-rule="evenodd" clip-rule="evenodd" d="M4 1H12C12.5304 1 13.0391 1.21071 13.4142 1.58579C13.7893 1.96086 14 2.46957 14 3V13C14 13.5304 13.7893 14.0391 13.4142 14.4142C13.0391 14.7893 12.5304 15 12 15H4C3.46957 15 2.96086 14.7893 2.58579 14.4142C2.21071 14.0391 2 13.5304 2 13V3C2 2.46957 2.21071 1.96086 2.58579 1.58579C2.96086 1.21071 3.46957 1 4 1ZM4 2C3.73478 2 3.48043 2.10536 3.29289 2.29289C3.10536 2.48043 3 2.73478 3 3V13C3 13.2652 3.10536 13.5196 3.29289 13.7071C3.48043 13.8946 3.73478 14 4 14H12C12.2652 14 12.5196 13.8946 12.7071 13.7071C12.8946 13.5196 13 13.2652 13 13V3C13 2.73478 12.8946 2.48043 12.7071 2.29289C12.5196 2.10536 12.2652 2 12 2H4Z" fill="#272727"/>
<path fill-rule="evenodd" clip-rule="evenodd" d="M4.5 11.5C4.5 11.3674 4.55268 11.2402 4.64645 11.1464C4.74021 11.0527 4.86739 11 5 11H8C8.13261 11 8.25979 11.0527 8.35355 11.1464C8.44732 11.2402 8.5 11.3674 8.5 11.5C8.5 11.6326 8.44732 11.7598 8.35355 11.8536C8.25979 11.9473 8.13261 12 8 12H5C4.86739 12 4.74021 11.9473 4.64645 11.8536C4.55268 11.7598 4.5 11.6326 4.5 11.5ZM4.5 9.5C4.5 9.36739 4.55268 9.24021 4.64645 9.14645C4.74021 9.05268 4.86739 9 5 9H11C11.1326 9 11.2598 9.05268 11.3536 9.14645C11.4473 9.24021 11.5 9.36739 11.5 9.5C11.5 9.63261 11.4473 9.75979 11.3536 9.85355C11.2598 9.94732 11.1326 10 11 10H5C4.86739 10 4.74021 9.94732 4.64645 9.85355C4.55268 9.75979 4.5 9.63261 4.5 9.5ZM6.139 5.792L7.469 6.678L9.323 4.823C9.36011 4.78578 9.40802 4.7612 9.4599 4.75277C9.51178 4.74433 9.565 4.75246 9.612 4.776L11.5 5.75V7.5C11.5 7.63261 11.4473 7.75979 11.3536 7.85355C11.2598 7.94732 11.1326 8 11 8H5C4.86739 8 4.74021 7.94732 4.64645 7.85355C4.55268 7.75979 4.5 7.63261 4.5 7.5V7C4.5 7 6.04 5.726 6.139 5.792ZM6.25 5C6.44891 5 6.63968 4.92098 6.78033 4.78033C6.92098 4.63968 7 4.44891 7 4.25C7 4.05109 6.92098 3.86032 6.78033 3.71967C6.63968 3.57902 6.44891 3.5 6.25 3.5C6.05109 3.5 5.86032 3.57902 5.71967 3.71967C5.57902 3.86032 5.5 4.05109 5.5 4.25C5.5 4.44891 5.57902 4.63968 5.71967 4.78033C5.86032 4.92098 6.05109 5 6.25 5Z" fill="#272727"/>
</svg>
