<svg width="17" height="15" viewBox="0 0 17 15" fill="none" xmlns="http://www.w3.org/2000/svg">
<path fill-rule="evenodd" clip-rule="evenodd" d="M3.178 10.894C3.2818 10.9982 3.36133 11.124 3.41094 11.2625C3.46055 11.4009 3.47901 11.5486 3.465 11.695C3.39472 12.3726 3.26148 13.0421 3.067 13.695C4.462 13.372 5.314 12.998 5.701 12.802C5.9205 12.6908 6.17329 12.6645 6.411 12.728C7.09243 12.9097 7.79477 13.0011 8.5 13C12.496 13 15.5 10.193 15.5 7C15.5 3.808 12.496 1 8.5 1C4.504 1 1.5 3.808 1.5 7C1.5 8.468 2.117 9.83 3.178 10.894ZM2.685 14.799C2.44807 14.846 2.21037 14.889 1.972 14.928C1.772 14.96 1.62 14.752 1.699 14.566C1.78779 14.3566 1.86918 14.1441 1.943 13.929L1.946 13.919C2.194 13.199 2.396 12.371 2.47 11.6C1.243 10.37 0.5 8.76 0.5 7C0.5 3.134 4.082 0 8.5 0C12.918 0 16.5 3.134 16.5 7C16.5 10.866 12.918 14 8.5 14C7.70765 14.0011 6.91859 13.8982 6.153 13.694C5.633 13.957 4.514 14.436 2.685 14.799Z" fill="#272727"/>
</svg>
