<svg width="12" height="12" viewBox="0 0 12 12" fill="none" xmlns="http://www.w3.org/2000/svg">
<path fill-rule="evenodd" clip-rule="evenodd" d="M6.44194 0.558058C6.32473 0.440848 6.16576 0.375 6 0.375C5.83424 0.375 5.67527 0.440848 5.55806 0.558058C5.44085 0.675269 5.375 0.83424 5.375 1V5.375H1C0.83424 5.375 0.675269 5.44085 0.558058 5.55806C0.440848 5.67527 0.375 5.83424 0.375 6C0.375 6.16576 0.440848 6.32473 0.558058 6.44194C0.675269 6.55915 0.83424 6.625 1 6.625H5.375V11C5.375 11.1658 5.44085 11.3247 5.55806 11.4419C5.67527 11.5592 5.83424 11.625 6 11.625C6.16576 11.625 6.32473 11.5592 6.44194 11.4419C6.55915 11.3247 6.625 11.1658 6.625 11V6.625H11C11.1658 6.625 11.3247 6.55915 11.4419 6.44194C11.5592 6.32473 11.625 6.16576 11.625 6C11.625 5.83424 11.5592 5.67527 11.4419 5.55806C11.3247 5.44085 11.1658 5.375 11 5.375H6.625V1C6.625 0.83424 6.55915 0.675269 6.44194 0.558058Z" fill="#49BAB6"/>
</svg>
