<svg width="13" height="12" viewBox="0 0 13 12" fill="none" xmlns="http://www.w3.org/2000/svg">
<path fill-rule="evenodd" clip-rule="evenodd" d="M2.6495 11.1375C2.591 11.4705 2.9195 11.7308 3.209 11.5823L6.5015 9.89025L9.79325 11.5823C10.0827 11.7308 10.4112 11.4705 10.3527 11.1383L9.73025 7.59075L12.3725 5.07375C12.6192 4.83825 12.491 4.40775 12.1602 4.36125L8.48675 3.83925L6.84875 0.594003C6.81754 0.52822 6.76831 0.472641 6.70678 0.433723C6.64525 0.394805 6.57393 0.374146 6.50112 0.374146C6.42831 0.374146 6.357 0.394805 6.29546 0.433723C6.23393 0.472641 6.1847 0.52822 6.1535 0.594003L4.5155 3.84L0.841997 4.362C0.511247 4.4085 0.382997 4.839 0.629747 5.0745L3.272 7.5915L2.6495 11.139V11.1375ZM6.32825 9.06225L3.56375 10.4828L4.08425 7.515C4.09644 7.44669 4.09167 7.37642 4.07035 7.31038C4.04904 7.24434 4.01183 7.18455 3.962 7.13625L1.7825 5.05875L4.8215 4.62675C4.88443 4.61725 4.94411 4.59264 4.99545 4.55502C5.04678 4.5174 5.08823 4.4679 5.11625 4.41075L6.5015 1.66725L7.886 4.41075C7.91401 4.4679 7.95546 4.5174 8.0068 4.55502C8.05813 4.59264 8.11782 4.61725 8.18075 4.62675L11.2197 5.058L9.04025 7.1355C8.99024 7.18384 8.95293 7.24375 8.93161 7.30995C8.91028 7.37614 8.90561 7.44657 8.918 7.515L9.4385 10.4828L6.674 9.06225C6.62054 9.03469 6.56127 9.02031 6.50112 9.02031C6.44098 9.02031 6.3817 9.03469 6.32825 9.06225Z" fill="#951B81"/>
</svg>
