<svg width="24" height="24" viewBox="0 0 24 24" fill="none" xmlns="http://www.w3.org/2000/svg">
<path fill-rule="evenodd" clip-rule="evenodd" d="M4.29899 22.275C4.18199 22.941 4.83899 23.4615 5.41799 23.1645L12.003 19.7805L18.5865 23.1645C19.1655 23.4615 19.8225 22.941 19.7055 22.2765L18.4605 15.1815L23.745 10.1475C24.2385 9.67652 23.982 8.81552 23.3205 8.72252L15.9735 7.67852L12.6975 1.18802C12.6351 1.05646 12.5366 0.945297 12.4136 0.86746C12.2905 0.789624 12.1479 0.748306 12.0022 0.748306C11.8566 0.748306 11.714 0.789624 11.5909 0.86746C11.4679 0.945297 11.3694 1.05646 11.307 1.18802L8.03099 7.68002L0.683994 8.72402C0.0224943 8.81702 -0.234006 9.67802 0.259494 10.149L5.54399 15.183L4.29899 22.278V22.275ZM11.6565 18.1245L6.12749 20.9655L7.16849 15.03C7.19288 14.8934 7.18334 14.7529 7.14071 14.6208C7.09808 14.4887 7.02366 14.3691 6.92399 14.2725L2.56499 10.1175L8.64299 9.25352C8.76885 9.23452 8.88823 9.18529 8.99089 9.11005C9.09356 9.03481 9.17646 8.93581 9.23249 8.82152L12.003 3.33452L14.772 8.82152C14.828 8.93581 14.9109 9.03481 15.0136 9.11005C15.1163 9.18529 15.2356 9.23452 15.3615 9.25352L21.4395 10.116L17.0805 14.271C16.9805 14.3677 16.9059 14.4875 16.8632 14.6199C16.8206 14.7523 16.8112 14.8932 16.836 15.03L17.877 20.9655L12.348 18.1245C12.2411 18.0694 12.1225 18.0406 12.0022 18.0406C11.882 18.0406 11.7634 18.0694 11.6565 18.1245V18.1245Z" fill="#272727"/>
</svg>
